<svg xmlns="http://www.w3.org/2000/svg" xmlns:xlink="http://www.w3.org/1999/xlink" width="500" zoomAndPan="magnify" viewBox="0 0 375 374.999991" height="500" preserveAspectRatio="xMidYMid meet" version="1.0"><defs><g/><clipPath id="30147dd7b2"><path d="M 0 116.179688 L 375 116.179688 L 375 258.820312 L 0 258.820312 Z M 0 116.179688 " clip-rule="nonzero"/></clipPath><clipPath id="77a6a594fb"><path d="M 303.679688 116.179688 C 343.066406 116.179688 375 148.109375 375 187.5 C 375 226.890625 343.066406 258.820312 303.679688 258.820312 L 71.320312 258.820312 C 31.933594 258.820312 0 226.890625 0 187.5 C 0 148.109375 31.933594 116.179688 71.320312 116.179688 Z M 303.679688 116.179688 " clip-rule="nonzero"/></clipPath><clipPath id="860d8e45ab"><path d="M 0.00390625 116.179688 L 375 116.179688 L 375 258.679688 L 0.00390625 258.679688 Z M 0.00390625 116.179688 " clip-rule="nonzero"/></clipPath><clipPath id="fd98d6cf6e"><path d="M 303.675781 116.179688 C 343.066406 116.179688 374.996094 148.078125 374.996094 187.429688 C 374.996094 226.777344 343.066406 258.679688 303.675781 258.679688 L 71.324219 258.679688 C 31.933594 258.679688 0.00390625 226.777344 0.00390625 187.429688 C 0.00390625 148.078125 31.933594 116.179688 71.324219 116.179688 Z M 303.675781 116.179688 " clip-rule="nonzero"/></clipPath></defs><g clip-path="url(#30147dd7b2)"><g clip-path="url(#77a6a594fb)"><path fill="#fdeee5" d="M 0 116.179688 L 375 116.179688 L 375 258.820312 L 0 258.820312 Z M 0 116.179688 " fill-opacity="1" fill-rule="nonzero"/></g></g><g clip-path="url(#860d8e45ab)"><g clip-path="url(#fd98d6cf6e)"><path stroke-linecap="butt" transform="matrix(0.75, 0, 0, 0.749261, 0.0030386, 116.178523)" fill="none" stroke-linejoin="miter" d="M 404.897017 0.0015545 C 457.417854 0.0015545 499.990773 42.574778 499.990773 95.095309 C 499.990773 147.610627 457.417854 190.189064 404.897017 190.189064 L 95.094913 190.189064 C 42.574076 190.189064 0.00115686 147.610627 0.00115686 95.095309 C 0.00115686 42.574778 42.574076 0.0015545 95.094913 0.0015545 Z M 404.897017 0.0015545 " stroke="#ed5804" stroke-width="8" stroke-opacity="1" stroke-miterlimit="4"/></g></g><path fill="#fdeee5" d="M 75.410156 169.523438 L 28.65625 169.523438 L 28.65625 140.492188 L 75.410156 140.492188 L 85.589844 147.277344 L 85.589844 162.738281 Z M 75.410156 169.523438 " fill-opacity="1" fill-rule="nonzero"/><path fill="#ed5804" d="M 75.410156 170.972656 L 28.65625 170.972656 C 27.855469 170.972656 27.207031 170.328125 27.207031 169.523438 L 27.207031 140.492188 C 27.207031 139.6875 27.855469 139.042969 28.65625 139.042969 L 75.410156 139.042969 C 75.699219 139.042969 75.980469 139.128906 76.214844 139.28125 L 86.394531 146.070312 C 86.800781 146.339844 87.042969 146.796875 87.042969 147.277344 L 87.042969 162.738281 C 87.042969 163.222656 86.800781 163.675781 86.394531 163.945312 L 76.214844 170.734375 C 75.980469 170.886719 75.699219 170.972656 75.410156 170.972656 Z M 30.105469 168.074219 L 74.976562 168.074219 L 84.140625 161.964844 L 84.140625 148.050781 L 74.976562 141.941406 L 30.105469 141.941406 Z M 30.105469 168.074219 " fill-opacity="1" fill-rule="nonzero"/><path fill="#ed5804" d="M 38.082031 163.8125 C 37.28125 163.8125 36.632812 163.164062 36.632812 162.359375 L 36.632812 147.65625 C 36.632812 146.851562 37.28125 146.207031 38.082031 146.207031 C 38.886719 146.207031 39.53125 146.851562 39.53125 147.65625 L 39.53125 162.359375 C 39.53125 163.164062 38.886719 163.8125 38.082031 163.8125 Z M 47.886719 163.8125 C 47.082031 163.8125 46.4375 163.164062 46.4375 162.359375 L 46.4375 147.65625 C 46.4375 146.851562 47.082031 146.207031 47.886719 146.207031 C 48.6875 146.207031 49.335938 146.851562 49.335938 147.65625 L 49.335938 162.359375 C 49.335938 163.164062 48.6875 163.8125 47.886719 163.8125 Z M 63.34375 163.8125 L 57.117188 163.8125 C 56.316406 163.8125 55.667969 163.164062 55.667969 162.359375 L 55.667969 155.003906 C 55.667969 154.199219 56.316406 153.554688 57.117188 153.554688 L 61.894531 153.554688 L 61.894531 149.097656 L 57.117188 149.097656 C 56.316406 149.097656 55.667969 148.449219 55.667969 147.644531 C 55.667969 146.84375 56.316406 146.195312 57.117188 146.195312 L 63.34375 146.195312 C 64.148438 146.195312 64.796875 146.84375 64.796875 147.644531 L 64.796875 155.003906 C 64.796875 155.804688 64.148438 156.453125 63.34375 156.453125 L 58.570312 156.453125 L 58.570312 160.910156 L 63.34375 160.910156 C 64.148438 160.910156 64.796875 161.558594 64.796875 162.359375 C 64.796875 163.164062 64.148438 163.8125 63.34375 163.8125 Z M 63.34375 163.8125 " fill-opacity="1" fill-rule="nonzero"/><path fill="#fdeee5" d="M 73.902344 155.003906 C 73.902344 155.429688 73.984375 155.839844 74.148438 156.230469 C 74.308594 156.625 74.542969 156.972656 74.84375 157.273438 C 75.144531 157.574219 75.492188 157.804688 75.882812 157.96875 C 76.277344 158.132812 76.6875 158.210938 77.113281 158.210938 C 77.539062 158.210938 77.945312 158.132812 78.339844 157.96875 C 78.734375 157.804688 79.082031 157.574219 79.382812 157.273438 C 79.683594 156.972656 79.914062 156.625 80.078125 156.230469 C 80.242188 155.839844 80.320312 155.429688 80.320312 155.003906 C 80.320312 154.578125 80.242188 154.167969 80.078125 153.773438 C 79.914062 153.382812 79.683594 153.035156 79.382812 152.734375 C 79.082031 152.433594 78.734375 152.199219 78.339844 152.039062 C 77.945312 151.875 77.539062 151.792969 77.113281 151.792969 C 76.6875 151.792969 76.277344 151.875 75.882812 152.039062 C 75.492188 152.199219 75.144531 152.433594 74.84375 152.734375 C 74.542969 153.035156 74.308594 153.382812 74.148438 153.773438 C 73.984375 154.167969 73.902344 154.578125 73.902344 155.003906 Z M 73.902344 155.003906 " fill-opacity="1" fill-rule="nonzero"/><path fill="#ed5804" d="M 77.113281 159.664062 C 74.539062 159.664062 72.453125 157.574219 72.453125 155.003906 C 72.453125 152.429688 74.539062 150.34375 77.113281 150.34375 C 79.683594 150.34375 81.773438 152.429688 81.773438 155.003906 C 81.773438 157.574219 79.675781 159.664062 77.113281 159.664062 Z M 77.113281 153.253906 C 76.144531 153.253906 75.351562 154.035156 75.351562 155.011719 C 75.351562 155.988281 76.136719 156.773438 77.113281 156.773438 C 78.089844 156.773438 78.871094 155.988281 78.871094 155.011719 C 78.871094 154.035156 78.078125 153.253906 77.113281 153.253906 Z M 77.113281 153.253906 " fill-opacity="1" fill-rule="nonzero"/><path fill="#fdeee5" d="M 104.492188 204.65625 C 111.347656 197.714844 111.277344 186.539062 104.347656 179.683594 C 97.414062 172.832031 86.230469 172.898438 79.375 179.832031 C 73.835938 185.4375 72.820312 193.800781 76.289062 200.433594 L 51.046875 225.976562 L 59.496094 234.328125 L 61.875 230.316406 L 63.703125 225.242188 L 68.488281 223.617188 L 73.535156 218.511719 L 73.765625 213.445312 L 79.625 212.34375 L 83.929688 207.992188 C 90.589844 211.375 98.953125 210.265625 104.492188 204.65625 Z M 104.492188 204.65625 " fill-opacity="1" fill-rule="nonzero"/><path fill="#ed5804" d="M 59.488281 235.769531 C 59.109375 235.769531 58.742188 235.625 58.472656 235.351562 L 50.023438 227 C 49.75 226.730469 49.597656 226.363281 49.585938 225.976562 C 49.585938 225.589844 49.730469 225.222656 50.003906 224.949219 L 74.519531 200.144531 C 73.011719 196.828125 72.492188 193.191406 73.003906 189.546875 C 73.582031 185.46875 75.421875 181.753906 78.332031 178.816406 C 85.734375 171.324219 97.859375 171.246094 105.351562 178.652344 C 108.988281 182.238281 111 187.023438 111.027344 192.128906 C 111.054688 197.234375 109.09375 202.046875 105.507812 205.671875 C 102.597656 208.613281 98.914062 210.496094 94.832031 211.125 C 91.199219 211.6875 87.542969 211.203125 84.21875 209.734375 L 80.640625 213.359375 C 80.4375 213.570312 80.167969 213.707031 79.878906 213.765625 L 75.148438 214.65625 L 74.964844 218.570312 C 74.945312 218.925781 74.800781 219.265625 74.550781 219.527344 L 69.503906 224.632812 C 69.347656 224.796875 69.15625 224.910156 68.941406 224.988281 L 64.824219 226.382812 L 63.230469 230.800781 C 63.199219 230.886719 63.160156 230.964844 63.113281 231.050781 L 60.734375 235.0625 C 60.503906 235.449219 60.117188 235.703125 59.671875 235.757812 C 59.613281 235.769531 59.554688 235.769531 59.488281 235.769531 Z M 53.097656 225.957031 L 59.199219 231.980469 L 60.558594 229.679688 L 62.347656 224.738281 C 62.492188 224.324219 62.832031 224.003906 63.25 223.859375 L 67.714844 222.339844 L 72.125 217.875 L 72.328125 213.367188 C 72.355469 212.691406 72.847656 212.132812 73.507812 212.003906 L 78.921875 210.992188 L 82.902344 206.957031 C 83.347656 206.515625 84.035156 206.398438 84.59375 206.6875 C 87.628906 208.234375 91.035156 208.777344 94.417969 208.253906 C 97.871094 207.722656 101 206.128906 103.46875 203.632812 C 106.511719 200.550781 108.175781 196.46875 108.144531 192.148438 C 108.117188 187.816406 106.40625 183.753906 103.332031 180.710938 C 96.96875 174.425781 86.691406 174.484375 80.410156 180.84375 C 77.945312 183.339844 76.386719 186.480469 75.894531 189.941406 C 75.410156 193.335938 76 196.730469 77.574219 199.746094 C 77.867188 200.308594 77.769531 200.992188 77.324219 201.4375 Z M 53.097656 225.957031 " fill-opacity="1" fill-rule="nonzero"/><path fill="#fdeee5" d="M 94.589844 186.296875 C 94.589844 186.722656 94.671875 187.132812 94.835938 187.527344 C 95 187.917969 95.230469 188.265625 95.53125 188.566406 C 95.832031 188.867188 96.179688 189.101562 96.574219 189.265625 C 96.964844 189.425781 97.375 189.507812 97.800781 189.507812 C 98.226562 189.507812 98.636719 189.425781 99.03125 189.265625 C 99.421875 189.101562 99.769531 188.867188 100.070312 188.566406 C 100.371094 188.265625 100.605469 187.917969 100.765625 187.527344 C 100.929688 187.132812 101.011719 186.722656 101.011719 186.296875 C 101.011719 185.871094 100.929688 185.464844 100.765625 185.070312 C 100.605469 184.675781 100.371094 184.328125 100.070312 184.027344 C 99.769531 183.726562 99.421875 183.496094 99.03125 183.332031 C 98.636719 183.167969 98.226562 183.089844 97.800781 183.089844 C 97.375 183.089844 96.964844 183.167969 96.574219 183.332031 C 96.179688 183.496094 95.832031 183.726562 95.53125 184.027344 C 95.230469 184.328125 95 184.675781 94.835938 185.070312 C 94.671875 185.464844 94.589844 185.871094 94.589844 186.296875 Z M 94.589844 186.296875 " fill-opacity="1" fill-rule="nonzero"/><path fill="#ed5804" d="M 97.800781 190.957031 C 96.5625 190.957031 95.402344 190.484375 94.535156 189.613281 C 92.707031 187.804688 92.6875 184.859375 94.496094 183.03125 C 96.304688 181.203125 99.25 181.183594 101.078125 182.992188 C 101.957031 183.863281 102.453125 185.03125 102.460938 186.277344 C 102.472656 187.527344 101.988281 188.695312 101.117188 189.574219 C 100.246094 190.457031 99.078125 190.949219 97.832031 190.957031 Z M 97.800781 184.546875 C 97.347656 184.546875 96.894531 184.722656 96.554688 185.070312 C 95.878906 185.757812 95.878906 186.867188 96.574219 187.554688 C 96.902344 187.882812 97.335938 188.058594 97.8125 188.058594 L 97.820312 188.058594 C 98.285156 188.058594 98.730469 187.875 99.058594 187.535156 C 99.386719 187.207031 99.570312 186.761719 99.5625 186.289062 C 99.5625 185.824219 99.378906 185.378906 99.039062 185.050781 C 98.691406 184.710938 98.246094 184.546875 97.800781 184.546875 Z M 97.800781 184.546875 " fill-opacity="1" fill-rule="nonzero"/><path fill="#ed5804" d="M 101.011719 185.457031 C 100.644531 185.457031 100.277344 185.320312 99.996094 185.042969 C 99.425781 184.480469 99.417969 183.5625 99.988281 182.992188 C 103.390625 179.539062 105.265625 174.910156 105.265625 169.941406 C 105.265625 159.945312 97.53125 151.8125 88.027344 151.8125 C 85.222656 151.8125 82.429688 152.539062 79.964844 153.910156 C 79.269531 154.296875 78.378906 154.046875 77.992188 153.351562 C 77.605469 152.652344 77.855469 151.765625 78.550781 151.378906 C 81.441406 149.761719 84.722656 148.914062 88.027344 148.914062 C 93.421875 148.914062 98.488281 151.105469 102.289062 155.089844 C 106.078125 159.054688 108.164062 164.332031 108.164062 169.929688 C 108.164062 175.664062 105.992188 181.027344 102.046875 185.023438 C 101.753906 185.3125 101.386719 185.457031 101.011719 185.457031 Z M 101.011719 185.457031 " fill-opacity="1" fill-rule="nonzero"/><g fill="#ed5804" fill-opacity="1"><g transform="translate(120.324606, 174.749989)"><g><path d="M 9.65625 -15.125 L 11.640625 -15.125 C 13.503906 -15.125 14.894531 -15.488281 15.8125 -16.21875 C 16.738281 -16.957031 17.203125 -18.03125 17.203125 -19.4375 C 17.203125 -20.851562 16.816406 -21.898438 16.046875 -22.578125 C 15.273438 -23.253906 14.0625 -23.59375 12.40625 -23.59375 L 9.65625 -23.59375 Z M 23.328125 -19.65625 C 23.328125 -16.582031 22.363281 -14.226562 20.4375 -12.59375 C 18.519531 -10.96875 15.789062 -10.15625 12.25 -10.15625 L 9.65625 -10.15625 L 9.65625 0 L 3.59375 0 L 3.59375 -28.5625 L 12.71875 -28.5625 C 16.175781 -28.5625 18.804688 -27.8125 20.609375 -26.3125 C 22.421875 -24.820312 23.328125 -22.601562 23.328125 -19.65625 Z M 23.328125 -19.65625 "/></g></g></g><g fill="#ed5804" fill-opacity="1"><g transform="translate(145.439339, 174.749989)"><g><path d="M 21.078125 0 L 19 -6.796875 L 8.59375 -6.796875 L 6.53125 0 L 0 0 L 10.078125 -28.671875 L 17.484375 -28.671875 L 27.59375 0 Z M 17.5625 -11.875 C 15.644531 -18.03125 14.566406 -21.507812 14.328125 -22.3125 C 14.085938 -23.125 13.914062 -23.765625 13.8125 -24.234375 C 13.382812 -22.566406 12.15625 -18.445312 10.125 -11.875 Z M 17.5625 -11.875 "/></g></g></g><g fill="#ed5804" fill-opacity="1"><g transform="translate(173.034304, 174.749989)"><g><path d="M 20.453125 -7.9375 C 20.453125 -5.351562 19.523438 -3.316406 17.671875 -1.828125 C 15.816406 -0.347656 13.234375 0.390625 9.921875 0.390625 C 6.878906 0.390625 4.1875 -0.179688 1.84375 -1.328125 L 1.84375 -6.953125 C 3.769531 -6.097656 5.398438 -5.492188 6.734375 -5.140625 C 8.066406 -4.785156 9.285156 -4.609375 10.390625 -4.609375 C 11.722656 -4.609375 12.742188 -4.863281 13.453125 -5.375 C 14.160156 -5.882812 14.515625 -6.640625 14.515625 -7.640625 C 14.515625 -8.203125 14.359375 -8.695312 14.046875 -9.125 C 13.734375 -9.5625 13.273438 -9.984375 12.671875 -10.390625 C 12.066406 -10.796875 10.832031 -11.441406 8.96875 -12.328125 C 7.21875 -13.148438 5.90625 -13.9375 5.03125 -14.6875 C 4.164062 -15.445312 3.472656 -16.328125 2.953125 -17.328125 C 2.429688 -18.328125 2.171875 -19.5 2.171875 -20.84375 C 2.171875 -23.363281 3.023438 -25.347656 4.734375 -26.796875 C 6.453125 -28.242188 8.820312 -28.96875 11.84375 -28.96875 C 13.320312 -28.96875 14.734375 -28.789062 16.078125 -28.4375 C 17.429688 -28.082031 18.84375 -27.585938 20.3125 -26.953125 L 18.359375 -22.25 C 16.835938 -22.875 15.578125 -23.304688 14.578125 -23.546875 C 13.585938 -23.796875 12.609375 -23.921875 11.640625 -23.921875 C 10.492188 -23.921875 9.613281 -23.65625 9 -23.125 C 8.394531 -22.59375 8.09375 -21.894531 8.09375 -21.03125 C 8.09375 -20.5 8.210938 -20.035156 8.453125 -19.640625 C 8.703125 -19.242188 9.097656 -18.859375 9.640625 -18.484375 C 10.179688 -18.117188 11.460938 -17.453125 13.484375 -16.484375 C 16.148438 -15.210938 17.976562 -13.929688 18.96875 -12.640625 C 19.957031 -11.359375 20.453125 -9.789062 20.453125 -7.9375 Z M 20.453125 -7.9375 "/></g></g></g><g fill="#ed5804" fill-opacity="1"><g transform="translate(195.063401, 174.749989)"><g><path d="M 20.453125 -7.9375 C 20.453125 -5.351562 19.523438 -3.316406 17.671875 -1.828125 C 15.816406 -0.347656 13.234375 0.390625 9.921875 0.390625 C 6.878906 0.390625 4.1875 -0.179688 1.84375 -1.328125 L 1.84375 -6.953125 C 3.769531 -6.097656 5.398438 -5.492188 6.734375 -5.140625 C 8.066406 -4.785156 9.285156 -4.609375 10.390625 -4.609375 C 11.722656 -4.609375 12.742188 -4.863281 13.453125 -5.375 C 14.160156 -5.882812 14.515625 -6.640625 14.515625 -7.640625 C 14.515625 -8.203125 14.359375 -8.695312 14.046875 -9.125 C 13.734375 -9.5625 13.273438 -9.984375 12.671875 -10.390625 C 12.066406 -10.796875 10.832031 -11.441406 8.96875 -12.328125 C 7.21875 -13.148438 5.90625 -13.9375 5.03125 -14.6875 C 4.164062 -15.445312 3.472656 -16.328125 2.953125 -17.328125 C 2.429688 -18.328125 2.171875 -19.5 2.171875 -20.84375 C 2.171875 -23.363281 3.023438 -25.347656 4.734375 -26.796875 C 6.453125 -28.242188 8.820312 -28.96875 11.84375 -28.96875 C 13.320312 -28.96875 14.734375 -28.789062 16.078125 -28.4375 C 17.429688 -28.082031 18.84375 -27.585938 20.3125 -26.953125 L 18.359375 -22.25 C 16.835938 -22.875 15.578125 -23.304688 14.578125 -23.546875 C 13.585938 -23.796875 12.609375 -23.921875 11.640625 -23.921875 C 10.492188 -23.921875 9.613281 -23.65625 9 -23.125 C 8.394531 -22.59375 8.09375 -21.894531 8.09375 -21.03125 C 8.09375 -20.5 8.210938 -20.035156 8.453125 -19.640625 C 8.703125 -19.242188 9.097656 -18.859375 9.640625 -18.484375 C 10.179688 -18.117188 11.460938 -17.453125 13.484375 -16.484375 C 16.148438 -15.210938 17.976562 -13.929688 18.96875 -12.640625 C 19.957031 -11.359375 20.453125 -9.789062 20.453125 -7.9375 Z M 20.453125 -7.9375 "/></g></g></g><g fill="#ed5804" fill-opacity="1"><g transform="translate(217.092497, 174.749989)"><g><path d="M 31.40625 0 L 24.515625 0 L 20.640625 -15 C 20.503906 -15.53125 20.257812 -16.632812 19.90625 -18.3125 C 19.5625 -19.988281 19.363281 -21.113281 19.3125 -21.6875 C 19.238281 -20.976562 19.046875 -19.84375 18.734375 -18.28125 C 18.421875 -16.726562 18.179688 -15.625 18.015625 -14.96875 L 14.15625 0 L 7.28125 0 L 0 -28.5625 L 5.953125 -28.5625 L 9.609375 -12.96875 C 10.242188 -10.09375 10.707031 -7.597656 11 -5.484375 C 11.070312 -6.234375 11.25 -7.382812 11.53125 -8.9375 C 11.8125 -10.488281 12.078125 -11.695312 12.328125 -12.5625 L 16.484375 -28.5625 L 22.203125 -28.5625 L 26.375 -12.5625 C 26.550781 -11.84375 26.773438 -10.75 27.046875 -9.28125 C 27.328125 -7.8125 27.535156 -6.546875 27.671875 -5.484375 C 27.804688 -6.503906 28.015625 -7.769531 28.296875 -9.28125 C 28.585938 -10.800781 28.847656 -12.03125 29.078125 -12.96875 L 32.71875 -28.5625 L 38.671875 -28.5625 Z M 31.40625 0 "/></g></g></g><g fill="#ed5804" fill-opacity="1"><g transform="translate(255.760594, 174.749989)"><g><path d="M 29.515625 -14.3125 C 29.515625 -9.59375 28.34375 -5.960938 26 -3.421875 C 23.65625 -0.878906 20.296875 0.390625 15.921875 0.390625 C 11.546875 0.390625 8.1875 -0.878906 5.84375 -3.421875 C 3.5 -5.960938 2.328125 -9.609375 2.328125 -14.359375 C 2.328125 -19.109375 3.5 -22.734375 5.84375 -25.234375 C 8.195312 -27.742188 11.566406 -29 15.953125 -29 C 20.347656 -29 23.707031 -27.734375 26.03125 -25.203125 C 28.351562 -22.679688 29.515625 -19.050781 29.515625 -14.3125 Z M 8.671875 -14.3125 C 8.671875 -11.125 9.273438 -8.722656 10.484375 -7.109375 C 11.703125 -5.492188 13.515625 -4.6875 15.921875 -4.6875 C 20.753906 -4.6875 23.171875 -7.894531 23.171875 -14.3125 C 23.171875 -20.75 20.765625 -23.96875 15.953125 -23.96875 C 13.546875 -23.96875 11.726562 -23.15625 10.5 -21.53125 C 9.28125 -19.914062 8.671875 -17.507812 8.671875 -14.3125 Z M 8.671875 -14.3125 "/></g></g></g><g fill="#ed5804" fill-opacity="1"><g transform="translate(287.59342, 174.749989)"><g><path d="M 9.65625 -15.875 L 11.609375 -15.875 C 13.515625 -15.875 14.921875 -16.191406 15.828125 -16.828125 C 16.742188 -17.472656 17.203125 -18.476562 17.203125 -19.84375 C 17.203125 -21.195312 16.738281 -22.160156 15.8125 -22.734375 C 14.882812 -23.304688 13.441406 -23.59375 11.484375 -23.59375 L 9.65625 -23.59375 Z M 9.65625 -10.953125 L 9.65625 0 L 3.59375 0 L 3.59375 -28.5625 L 11.921875 -28.5625 C 15.796875 -28.5625 18.664062 -27.851562 20.53125 -26.4375 C 22.394531 -25.019531 23.328125 -22.875 23.328125 -20 C 23.328125 -18.320312 22.863281 -16.828125 21.9375 -15.515625 C 21.007812 -14.210938 19.703125 -13.1875 18.015625 -12.4375 C 22.304688 -6.019531 25.101562 -1.875 26.40625 0 L 19.6875 0 L 12.875 -10.953125 Z M 9.65625 -10.953125 "/></g></g></g><g fill="#ed5804" fill-opacity="1"><g transform="translate(313.997078, 174.749989)"><g><path d="M 27.28125 -14.546875 C 27.28125 -9.847656 25.941406 -6.25 23.265625 -3.75 C 20.597656 -1.25 16.738281 0 11.6875 0 L 3.59375 0 L 3.59375 -28.5625 L 12.5625 -28.5625 C 17.21875 -28.5625 20.832031 -27.328125 23.40625 -24.859375 C 25.988281 -22.398438 27.28125 -18.960938 27.28125 -14.546875 Z M 21 -14.390625 C 21 -20.523438 18.289062 -23.59375 12.875 -23.59375 L 9.65625 -23.59375 L 9.65625 -5 L 12.25 -5 C 18.082031 -5 21 -8.128906 21 -14.390625 Z M 21 -14.390625 "/></g></g></g><g fill="#ed5804" fill-opacity="1"><g transform="translate(111.125388, 230.249985)"><g><path d="M 14.4375 -16.03125 L 25.765625 -16.03125 L 25.765625 -1.234375 C 23.929688 -0.628906 22.203125 -0.207031 20.578125 0.03125 C 18.953125 0.269531 17.296875 0.390625 15.609375 0.390625 C 11.296875 0.390625 8.003906 -0.875 5.734375 -3.40625 C 3.460938 -5.9375 2.328125 -9.570312 2.328125 -14.3125 C 2.328125 -18.925781 3.644531 -22.519531 6.28125 -25.09375 C 8.914062 -27.675781 12.570312 -28.96875 17.25 -28.96875 C 20.175781 -28.96875 23 -28.378906 25.71875 -27.203125 L 23.71875 -22.359375 C 21.632812 -23.398438 19.460938 -23.921875 17.203125 -23.921875 C 14.585938 -23.921875 12.492188 -23.039062 10.921875 -21.28125 C 9.347656 -19.53125 8.5625 -17.171875 8.5625 -14.203125 C 8.5625 -11.097656 9.191406 -8.726562 10.453125 -7.09375 C 11.722656 -5.46875 13.570312 -4.65625 16 -4.65625 C 17.257812 -4.65625 18.539062 -4.785156 19.84375 -5.046875 L 19.84375 -11 L 14.4375 -11 Z M 14.4375 -16.03125 "/></g></g></g><g fill="#ed5804" fill-opacity="1"><g transform="translate(140.087407, 230.249985)"><g><path d="M 20.046875 0 L 3.59375 0 L 3.59375 -28.5625 L 20.046875 -28.5625 L 20.046875 -23.59375 L 9.65625 -23.59375 L 9.65625 -17.328125 L 19.3125 -17.328125 L 19.3125 -12.359375 L 9.65625 -12.359375 L 9.65625 -5 L 20.046875 -5 Z M 20.046875 0 "/></g></g></g><g fill="#ed5804" fill-opacity="1"><g transform="translate(162.487567, 230.249985)"><g><path d="M 28.921875 0 L 21.234375 0 L 8.8125 -21.609375 L 8.640625 -21.609375 C 8.878906 -17.785156 9 -15.0625 9 -13.4375 L 9 0 L 3.59375 0 L 3.59375 -28.5625 L 11.234375 -28.5625 L 23.640625 -7.171875 L 23.765625 -7.171875 C 23.578125 -10.878906 23.484375 -13.503906 23.484375 -15.046875 L 23.484375 -28.5625 L 28.921875 -28.5625 Z M 28.921875 0 "/></g></g></g><g fill="#ed5804" fill-opacity="1"><g transform="translate(195.003926, 230.249985)"><g><path d="M 20.046875 0 L 3.59375 0 L 3.59375 -28.5625 L 20.046875 -28.5625 L 20.046875 -23.59375 L 9.65625 -23.59375 L 9.65625 -17.328125 L 19.3125 -17.328125 L 19.3125 -12.359375 L 9.65625 -12.359375 L 9.65625 -5 L 20.046875 -5 Z M 20.046875 0 "/></g></g></g><g fill="#ed5804" fill-opacity="1"><g transform="translate(217.404086, 230.249985)"><g><path d="M 9.65625 -15.875 L 11.609375 -15.875 C 13.515625 -15.875 14.921875 -16.191406 15.828125 -16.828125 C 16.742188 -17.472656 17.203125 -18.476562 17.203125 -19.84375 C 17.203125 -21.195312 16.738281 -22.160156 15.8125 -22.734375 C 14.882812 -23.304688 13.441406 -23.59375 11.484375 -23.59375 L 9.65625 -23.59375 Z M 9.65625 -10.953125 L 9.65625 0 L 3.59375 0 L 3.59375 -28.5625 L 11.921875 -28.5625 C 15.796875 -28.5625 18.664062 -27.851562 20.53125 -26.4375 C 22.394531 -25.019531 23.328125 -22.875 23.328125 -20 C 23.328125 -18.320312 22.863281 -16.828125 21.9375 -15.515625 C 21.007812 -14.210938 19.703125 -13.1875 18.015625 -12.4375 C 22.304688 -6.019531 25.101562 -1.875 26.40625 0 L 19.6875 0 L 12.875 -10.953125 Z M 9.65625 -10.953125 "/></g></g></g><g fill="#ed5804" fill-opacity="1"><g transform="translate(243.807755, 230.249985)"><g><path d="M 21.078125 0 L 19 -6.796875 L 8.59375 -6.796875 L 6.53125 0 L 0 0 L 10.078125 -28.671875 L 17.484375 -28.671875 L 27.59375 0 Z M 17.5625 -11.875 C 15.644531 -18.03125 14.566406 -21.507812 14.328125 -22.3125 C 14.085938 -23.125 13.914062 -23.765625 13.8125 -24.234375 C 13.382812 -22.566406 12.15625 -18.445312 10.125 -11.875 Z M 17.5625 -11.875 "/></g></g></g><g fill="#ed5804" fill-opacity="1"><g transform="translate(271.40272, 230.249985)"><g><path d="M 14.609375 0 L 8.5625 0 L 8.5625 -23.515625 L 0.796875 -23.515625 L 0.796875 -28.5625 L 22.359375 -28.5625 L 22.359375 -23.515625 L 14.609375 -23.515625 Z M 14.609375 0 "/></g></g></g><g fill="#ed5804" fill-opacity="1"><g transform="translate(294.564519, 230.249985)"><g><path d="M 29.515625 -14.3125 C 29.515625 -9.59375 28.34375 -5.960938 26 -3.421875 C 23.65625 -0.878906 20.296875 0.390625 15.921875 0.390625 C 11.546875 0.390625 8.1875 -0.878906 5.84375 -3.421875 C 3.5 -5.960938 2.328125 -9.609375 2.328125 -14.359375 C 2.328125 -19.109375 3.5 -22.734375 5.84375 -25.234375 C 8.195312 -27.742188 11.566406 -29 15.953125 -29 C 20.347656 -29 23.707031 -27.734375 26.03125 -25.203125 C 28.351562 -22.679688 29.515625 -19.050781 29.515625 -14.3125 Z M 8.671875 -14.3125 C 8.671875 -11.125 9.273438 -8.722656 10.484375 -7.109375 C 11.703125 -5.492188 13.515625 -4.6875 15.921875 -4.6875 C 20.753906 -4.6875 23.171875 -7.894531 23.171875 -14.3125 C 23.171875 -20.75 20.765625 -23.96875 15.953125 -23.96875 C 13.546875 -23.96875 11.726562 -23.15625 10.5 -21.53125 C 9.28125 -19.914062 8.671875 -17.507812 8.671875 -14.3125 Z M 8.671875 -14.3125 "/></g></g></g><g fill="#ed5804" fill-opacity="1"><g transform="translate(326.397345, 230.249985)"><g><path d="M 9.65625 -15.875 L 11.609375 -15.875 C 13.515625 -15.875 14.921875 -16.191406 15.828125 -16.828125 C 16.742188 -17.472656 17.203125 -18.476562 17.203125 -19.84375 C 17.203125 -21.195312 16.738281 -22.160156 15.8125 -22.734375 C 14.882812 -23.304688 13.441406 -23.59375 11.484375 -23.59375 L 9.65625 -23.59375 Z M 9.65625 -10.953125 L 9.65625 0 L 3.59375 0 L 3.59375 -28.5625 L 11.921875 -28.5625 C 15.796875 -28.5625 18.664062 -27.851562 20.53125 -26.4375 C 22.394531 -25.019531 23.328125 -22.875 23.328125 -20 C 23.328125 -18.320312 22.863281 -16.828125 21.9375 -15.515625 C 21.007812 -14.210938 19.703125 -13.1875 18.015625 -12.4375 C 22.304688 -6.019531 25.101562 -1.875 26.40625 0 L 19.6875 0 L 12.875 -10.953125 Z M 9.65625 -10.953125 "/></g></g></g></svg>